<svg width="159" height="34" viewBox="0 0 159 34" fill="none" xmlns="http://www.w3.org/2000/svg">
<g clip-path="url(#clip0_1_5)">
<path d="M79.7421 24.3776H97.1179V22.3453C97.1179 19.4494 96.0004 16.7058 93.917 14.6736C91.885 12.6413 89.1413 11.5236 86.2452 11.5236C83.4003 11.5236 80.6567 12.6413 78.6246 14.6736H78.5737C76.5413 16.7058 75.4237 19.4494 75.4237 22.3453C75.4237 25.2413 76.5413 27.9848 78.5737 30.0171C80.6567 32.0493 83.4003 33.2179 86.2452 33.2179C88.0234 33.2179 89.7512 32.7606 91.326 31.9477C92.9012 31.1348 94.2221 29.9154 95.238 28.4421L91.9358 26.2066C91.2751 27.1211 90.4623 27.8832 89.4461 28.3913C88.4807 28.8993 87.3631 29.1533 86.2452 29.1533C84.467 29.1533 82.7396 28.4421 81.4695 27.1719C80.6567 26.359 80.0977 25.3937 79.7421 24.3776ZM79.7421 20.3131C80.0977 19.2969 80.6567 18.3316 81.4187 17.5187H81.4695C82.7396 16.2486 84.467 15.5373 86.2452 15.5373C88.0743 15.5373 89.8016 16.2486 91.0721 17.5187C91.8849 18.3316 92.4439 19.2969 92.7995 20.3131H79.7421Z" fill="black"/>
<path d="M104.942 13.0478V11.8792H100.929V32.8114H104.942V20.5671C104.942 19.2461 105.501 17.976 106.415 17.0107C107.381 16.0453 108.651 15.5373 110.023 15.5373V11.5236C108.194 11.5236 106.415 12.0316 104.942 13.0478Z" fill="black"/>
<path d="M129.685 30.7792V32.8114H133.699V11.8792H129.685V13.9115C127.754 12.3365 125.366 11.5236 122.826 11.5236C119.981 11.5236 117.237 12.6413 115.154 14.6736C113.122 16.7058 112.004 19.4494 112.004 22.3453C112.004 25.2413 113.122 27.9848 115.154 30.0171C117.237 32.0493 119.981 33.2179 122.826 33.2179C125.366 33.2179 127.754 32.3541 129.685 30.7792ZM118.05 27.1719C116.729 25.9018 116.018 24.1743 116.018 22.3453C116.018 20.5163 116.729 18.7889 118.05 17.5187C119.32 16.2486 121.048 15.5373 122.826 15.5373C124.655 15.5373 126.382 16.2486 127.653 17.5187C128.974 18.7889 129.685 20.5163 129.685 22.3453C129.685 24.1743 128.974 25.9018 127.653 27.1719C126.382 28.4421 124.655 29.1533 122.826 29.1533C121.048 29.1533 119.32 28.4421 118.05 27.1719Z" fill="black"/>
<path d="M150.566 22.1421L158.695 11.8792H153.564L148.026 18.9413L142.437 11.8792H137.306L145.435 22.1421L137.001 32.8115H142.132L148.026 25.3937L153.868 32.8115H159L150.566 22.1421Z" fill="black"/>
<path d="M39.4654 33.3179V0.379486H45.3002L55.6523 15.6253L65.9102 0.379486H71.7921V33.3179H66.3337V8.99053L55.6052 24.848L44.9238 9.08464V33.3179H39.4654Z" fill="black"/>
<path d="M16.033 0L16.5064 0.473414C18.7293 2.69633 18.7293 6.30038 16.5064 8.52331L6.74749 18.2822C5.50531 19.5244 3.49133 19.5244 2.24915 18.2822C1.00696 17.0401 1.00696 15.0261 2.24915 13.7839L16.033 0Z" fill="#01BD80"/>
<path d="M29.8169 13.7839C31.0591 15.0261 31.0591 17.0401 29.8169 18.2822C28.5747 19.5244 26.5608 19.5244 25.3186 18.2822L15.5597 8.52327C13.3367 6.30038 13.3367 2.69633 15.5597 0.473414L16.033 0L29.8169 13.7839Z" fill="#01BD80"/>
<path d="M16.033 14.42L16.5064 14.8935C18.7293 17.1164 18.7293 20.7204 16.5064 22.9434L6.74749 32.7023C5.50531 33.9444 3.49133 33.9444 2.24915 32.7023C1.00696 31.4601 1.00696 29.4461 2.24915 28.2039L16.033 14.42Z" fill="#01BD80"/>
<path d="M29.8169 28.2039C31.0591 29.4461 31.0591 31.4601 29.8169 32.7023C28.5747 33.9444 26.5608 33.9444 25.3186 32.7023L15.5597 22.9433C13.3367 20.7204 13.3367 17.1164 15.5597 14.8934L16.033 14.42L29.8169 28.2039Z" fill="#01BD80"/>
</g>
<defs>
<clipPath id="clip0_1_5">
<rect width="159" height="33.7733" fill="white"/>
</clipPath>
</defs>
</svg>
