<svg width="162" height="97" viewBox="0 0 162 97" fill="none" xmlns="http://www.w3.org/2000/svg">
<path d="M0.460334 5.78289C-0.00462317 6.08094 -0.139928 6.69948 0.158121 7.16444L5.01512 14.7414C5.31317 15.2063 5.9317 15.3416 6.39666 15.0436C6.86162 14.7455 6.99692 14.127 6.69887 13.662L2.38155 6.92698L9.11658 2.60966C9.58154 2.31161 9.71684 1.69307 9.41879 1.22811C9.12074 0.763154 8.5022 0.627848 8.03725 0.925898L0.460334 5.78289ZM0.786303 7.60167C2.9476 8.07445 6.02121 8.0119 9.63397 7.72815C13.2718 7.44242 17.6005 6.91755 22.303 6.40802C31.7443 5.38502 42.7963 4.41203 53.4673 5.43273C64.1389 6.45349 74.3249 9.45937 82.1132 16.3055C89.8784 23.1313 95.3904 33.8902 96.5022 50.6908L98.4978 50.5587C97.3596 33.3594 91.6841 22.0557 83.4337 14.8034C75.2064 7.57143 64.5486 4.48355 53.6577 3.44182C42.7662 2.40002 31.5369 3.39578 22.0876 4.41965C17.3448 4.93355 13.0759 5.45165 9.47736 5.73429C5.85379 6.01889 3.0524 6.05009 1.2137 5.64787L0.786303 7.60167Z" fill="#444444" fill-opacity="0.266667"/>
<path d="M70.3118 77H68.343L71.9276 66.8182H74.2045L77.794 77H75.8253L73.1058 68.9062H73.0263L70.3118 77ZM70.3764 73.0078H75.7457V74.4893H70.3764V73.0078ZM80.6962 74.6037L80.6912 72.4311H80.9796L83.7239 69.3636H85.8269L82.4512 73.1222H82.0783L80.6962 74.6037ZM79.0556 77V66.8182H80.8553V77H79.0556ZM83.8482 77L81.3624 73.5249L82.5755 72.2571L86.0009 77H83.8482ZM89.2237 77.1541C88.7398 77.1541 88.304 77.0679 87.9162 76.8956C87.5317 76.7199 87.2268 76.4614 87.0014 76.12C86.7794 75.7786 86.6683 75.3577 86.6683 74.8572C86.6683 74.4264 86.7479 74.0701 86.907 73.7884C87.0661 73.5066 87.2831 73.2812 87.5582 73.1122C87.8333 72.9432 88.1432 72.8156 88.4879 72.7294C88.8359 72.6399 89.1955 72.5753 89.5668 72.5355C90.0142 72.4891 90.3771 72.4477 90.6555 72.4112C90.9339 72.3714 91.1361 72.3118 91.2621 72.2322C91.3913 72.1494 91.456 72.0218 91.456 71.8494V71.8196C91.456 71.4451 91.3449 71.1551 91.1229 70.9496C90.9008 70.7441 90.581 70.6413 90.1634 70.6413C89.7225 70.6413 89.3729 70.7375 89.1143 70.9297C88.8591 71.1219 88.6868 71.349 88.5973 71.6108L86.9169 71.3722C87.0495 70.9081 87.2682 70.5204 87.5732 70.2088C87.8781 69.8939 88.2509 69.6586 88.6918 69.5028C89.1326 69.3438 89.6198 69.2642 90.1534 69.2642C90.5213 69.2642 90.8875 69.3073 91.2521 69.3935C91.6167 69.4796 91.9498 69.6222 92.2514 69.821C92.553 70.0166 92.795 70.2834 92.9773 70.6214C93.1629 70.9595 93.2557 71.3821 93.2557 71.8892V77H91.5256V75.951H91.4659C91.3565 76.1631 91.2024 76.362 91.0036 76.5476C90.808 76.7299 90.5611 76.8774 90.2628 76.9901C89.9678 77.0994 89.6214 77.1541 89.2237 77.1541ZM89.6911 75.8317C90.0523 75.8317 90.3655 75.7604 90.6307 75.6179C90.8958 75.4721 91.0997 75.2798 91.2422 75.0412C91.388 74.8026 91.4609 74.5424 91.4609 74.2607V73.3608C91.4046 73.4072 91.3085 73.4503 91.1726 73.4901C91.04 73.5298 90.8909 73.5646 90.7251 73.5945C90.5594 73.6243 90.3954 73.6508 90.233 73.674C90.0705 73.6972 89.9297 73.7171 89.8104 73.7337C89.5419 73.7701 89.3016 73.8298 89.0895 73.9126C88.8774 73.9955 88.71 74.1115 88.5874 74.2607C88.4647 74.4065 88.4034 74.5954 88.4034 74.8274C88.4034 75.1589 88.5244 75.4091 88.7663 75.5781C89.0083 75.7472 89.3165 75.8317 89.6911 75.8317ZM97.8991 77.1342C97.2992 77.1342 96.7623 76.9801 96.2884 76.6719C95.8144 76.3636 95.4399 75.9162 95.1648 75.3295C94.8897 74.7429 94.7521 74.0303 94.7521 73.1918C94.7521 72.3433 94.8913 71.6274 95.1697 71.044C95.4515 70.4574 95.831 70.0149 96.3082 69.7166C96.7855 69.415 97.3175 69.2642 97.9041 69.2642C98.3516 69.2642 98.7195 69.3404 99.0078 69.4929C99.2962 69.642 99.5249 69.8227 99.6939 70.0348C99.8629 70.2436 99.9938 70.4408 100.087 70.6264H100.161V66.8182H101.966V77H100.196V75.7969H100.087C99.9938 75.9825 99.8596 76.1797 99.6839 76.3885C99.5083 76.594 99.2763 76.7696 98.9879 76.9155C98.6996 77.0613 98.3366 77.1342 97.8991 77.1342ZM98.4013 75.6577C98.7824 75.6577 99.1072 75.5549 99.3757 75.3494C99.6442 75.1406 99.848 74.8506 99.9872 74.4794C100.126 74.1082 100.196 73.6757 100.196 73.1818C100.196 72.688 100.126 72.2588 99.9872 71.8942C99.8513 71.5296 99.6491 71.2462 99.3807 71.044C99.1155 70.8419 98.7891 70.7408 98.4013 70.7408C98.0002 70.7408 97.6655 70.8452 97.397 71.054C97.1286 71.2628 96.9264 71.5511 96.7905 71.919C96.6546 72.2869 96.5866 72.7079 96.5866 73.1818C96.5866 73.6591 96.6546 74.085 96.7905 74.4595C96.9297 74.8307 97.1335 75.1241 97.402 75.3395C97.6738 75.5516 98.0069 75.6577 98.4013 75.6577ZM107.264 77.1491C106.499 77.1491 105.838 76.9901 105.281 76.6719C104.727 76.3504 104.301 75.8963 104.003 75.3097C103.705 74.7197 103.556 74.0253 103.556 73.2266C103.556 72.4411 103.705 71.7517 104.003 71.1584C104.305 70.5618 104.726 70.0978 105.266 69.7663C105.806 69.4316 106.441 69.2642 107.17 69.2642C107.641 69.2642 108.085 69.3404 108.502 69.4929C108.923 69.642 109.294 69.8741 109.616 70.1889C109.941 70.5038 110.196 70.9048 110.382 71.392C110.567 71.8759 110.66 72.4527 110.66 73.1222V73.674H104.401V72.4609H108.935C108.932 72.1162 108.857 71.8097 108.711 71.5412C108.565 71.2694 108.361 71.0556 108.1 70.8999C107.841 70.7441 107.539 70.6662 107.195 70.6662C106.827 70.6662 106.504 70.7557 106.225 70.9347C105.947 71.1103 105.73 71.3423 105.574 71.6307C105.422 71.9157 105.344 72.2289 105.34 72.5703V73.6293C105.34 74.0734 105.422 74.4545 105.584 74.7727C105.746 75.0876 105.973 75.3295 106.265 75.4986C106.557 75.6643 106.898 75.7472 107.289 75.7472C107.551 75.7472 107.788 75.7107 108 75.6378C108.212 75.5616 108.396 75.4505 108.552 75.3047C108.708 75.1589 108.825 74.9782 108.905 74.7628L110.585 74.9517C110.479 75.3958 110.277 75.7836 109.979 76.1151C109.684 76.4432 109.306 76.6984 108.845 76.8807C108.385 77.0597 107.858 77.1491 107.264 77.1491ZM112.183 77V69.3636H113.903V70.6612H113.992C114.151 70.2237 114.415 69.8823 114.783 69.6371C115.151 69.3885 115.59 69.2642 116.1 69.2642C116.617 69.2642 117.053 69.3902 117.408 69.642C117.766 69.8906 118.018 70.2304 118.163 70.6612H118.243C118.412 70.237 118.697 69.8989 119.098 69.647C119.502 69.3918 119.981 69.2642 120.535 69.2642C121.237 69.2642 121.811 69.4863 122.255 69.9304C122.699 70.3745 122.921 71.0225 122.921 71.8743V77H121.116V72.1527C121.116 71.6787 120.991 71.3324 120.739 71.1136C120.487 70.8916 120.179 70.7805 119.814 70.7805C119.38 70.7805 119.04 70.9164 118.795 71.1882C118.553 71.4567 118.432 71.8063 118.432 72.2372V77H116.667V72.0781C116.667 71.6837 116.548 71.3688 116.309 71.1335C116.074 70.8982 115.765 70.7805 115.384 70.7805C115.126 70.7805 114.89 70.8468 114.678 70.9794C114.466 71.1087 114.297 71.2926 114.171 71.5312C114.045 71.7666 113.982 72.0417 113.982 72.3565V77H112.183ZM124.747 77V69.3636H126.547V77H124.747ZM125.652 68.2798C125.367 68.2798 125.122 68.1854 124.916 67.9964C124.711 67.8042 124.608 67.5739 124.608 67.3054C124.608 67.0336 124.711 66.8033 124.916 66.6143C125.122 66.4221 125.367 66.326 125.652 66.326C125.94 66.326 126.185 66.4221 126.388 66.6143C126.593 66.8033 126.696 67.0336 126.696 67.3054C126.696 67.5739 126.593 67.8042 126.388 67.9964C126.185 68.1854 125.94 68.2798 125.652 68.2798ZM129.516 79.8636C129.271 79.8636 129.044 79.8438 128.835 79.804C128.629 79.7675 128.465 79.7244 128.343 79.6747L128.76 78.2727C129.022 78.349 129.256 78.3854 129.461 78.3821C129.667 78.3788 129.847 78.3142 130.003 78.1882C130.162 78.0656 130.297 77.8601 130.406 77.5717L130.56 77.1591L127.791 69.3636H129.7L131.46 75.1307H131.539L133.304 69.3636H135.218L132.161 77.9247C132.018 78.3291 131.829 78.6754 131.594 78.9638C131.359 79.2554 131.07 79.4775 130.729 79.63C130.391 79.7857 129.987 79.8636 129.516 79.8636ZM138.442 77.1541C137.959 77.1541 137.523 77.0679 137.135 76.8956C136.75 76.7199 136.446 76.4614 136.22 76.12C135.998 75.7786 135.887 75.3577 135.887 74.8572C135.887 74.4264 135.967 74.0701 136.126 73.7884C136.285 73.5066 136.502 73.2812 136.777 73.1122C137.052 72.9432 137.362 72.8156 137.707 72.7294C138.055 72.6399 138.414 72.5753 138.786 72.5355C139.233 72.4891 139.596 72.4477 139.874 72.4112C140.153 72.3714 140.355 72.3118 140.481 72.2322C140.61 72.1494 140.675 72.0218 140.675 71.8494V71.8196C140.675 71.4451 140.564 71.1551 140.342 70.9496C140.12 70.7441 139.8 70.6413 139.382 70.6413C138.941 70.6413 138.592 70.7375 138.333 70.9297C138.078 71.1219 137.906 71.349 137.816 71.6108L136.136 71.3722C136.268 70.9081 136.487 70.5204 136.792 70.2088C137.097 69.8939 137.47 69.6586 137.911 69.5028C138.351 69.3438 138.839 69.2642 139.372 69.2642C139.74 69.2642 140.106 69.3073 140.471 69.3935C140.835 69.4796 141.169 69.6222 141.47 69.821C141.772 70.0166 142.014 70.2834 142.196 70.6214C142.382 70.9595 142.474 71.3821 142.474 71.8892V77H140.744V75.951H140.685C140.575 76.1631 140.421 76.362 140.222 76.5476C140.027 76.7299 139.78 76.8774 139.482 76.9901C139.187 77.0994 138.84 77.1541 138.442 77.1541ZM138.91 75.8317C139.271 75.8317 139.584 75.7604 139.849 75.6179C140.115 75.4721 140.318 75.2798 140.461 75.0412C140.607 74.8026 140.68 74.5424 140.68 74.2607V73.3608C140.623 73.4072 140.527 73.4503 140.391 73.4901C140.259 73.5298 140.11 73.5646 139.944 73.5945C139.778 73.6243 139.614 73.6508 139.452 73.674C139.289 73.6972 139.148 73.7171 139.029 73.7337C138.761 73.7701 138.52 73.8298 138.308 73.9126C138.096 73.9955 137.929 74.1115 137.806 74.2607C137.683 74.4065 137.622 74.5954 137.622 74.8274C137.622 75.1589 137.743 75.4091 137.985 75.5781C138.227 75.7472 138.535 75.8317 138.91 75.8317ZM146.084 66.8182V77H144.284V66.8182H146.084ZM150.132 77.1541C149.648 77.1541 149.212 77.0679 148.824 76.8956C148.44 76.7199 148.135 76.4614 147.91 76.12C147.688 75.7786 147.577 75.3577 147.577 74.8572C147.577 74.4264 147.656 74.0701 147.815 73.7884C147.974 73.5066 148.191 73.2812 148.466 73.1122C148.742 72.9432 149.051 72.8156 149.396 72.7294C149.744 72.6399 150.104 72.5753 150.475 72.5355C150.922 72.4891 151.285 72.4477 151.564 72.4112C151.842 72.3714 152.044 72.3118 152.17 72.2322C152.3 72.1494 152.364 72.0218 152.364 71.8494V71.8196C152.364 71.4451 152.253 71.1551 152.031 70.9496C151.809 70.7441 151.489 70.6413 151.072 70.6413C150.631 70.6413 150.281 70.7375 150.023 70.9297C149.767 71.1219 149.595 71.349 149.506 71.6108L147.825 71.3722C147.958 70.9081 148.176 70.5204 148.481 70.2088C148.786 69.8939 149.159 69.6586 149.6 69.5028C150.041 69.3438 150.528 69.2642 151.062 69.2642C151.43 69.2642 151.796 69.3073 152.16 69.3935C152.525 69.4796 152.858 69.6222 153.16 69.821C153.461 70.0166 153.703 70.2834 153.885 70.6214C154.071 70.9595 154.164 71.3821 154.164 71.8892V77H152.434V75.951H152.374C152.265 76.1631 152.111 76.362 151.912 76.5476C151.716 76.7299 151.469 76.8774 151.171 76.9901C150.876 77.0994 150.53 77.1541 150.132 77.1541ZM150.599 75.8317C150.961 75.8317 151.274 75.7604 151.539 75.6179C151.804 75.4721 152.008 75.2798 152.15 75.0412C152.296 74.8026 152.369 74.5424 152.369 74.2607V73.3608C152.313 73.4072 152.217 73.4503 152.081 73.4901C151.948 73.5298 151.799 73.5646 151.633 73.5945C151.468 73.6243 151.304 73.6508 151.141 73.674C150.979 73.6972 150.838 73.7171 150.719 73.7337C150.45 73.7701 150.21 73.8298 149.998 73.9126C149.786 73.9955 149.618 74.1115 149.496 74.2607C149.373 74.4065 149.312 74.5954 149.312 74.8274C149.312 75.1589 149.433 75.4091 149.675 75.5781C149.916 75.7472 150.225 75.8317 150.599 75.8317ZM155.974 77V69.3636H157.719V70.6364H157.798C157.937 70.1955 158.176 69.8558 158.514 69.6172C158.855 69.3752 159.245 69.2543 159.682 69.2543C159.782 69.2543 159.893 69.2592 160.015 69.2692C160.141 69.2758 160.246 69.2874 160.329 69.304V70.9595C160.252 70.933 160.131 70.9098 159.966 70.8899C159.803 70.8667 159.646 70.8551 159.493 70.8551C159.165 70.8551 158.87 70.9264 158.608 71.0689C158.35 71.2081 158.146 71.402 157.997 71.6506C157.848 71.8991 157.773 72.1858 157.773 72.5107V77H155.974ZM68.9247 94V86.3636H70.6697V87.6364H70.7493C70.8885 87.1955 71.1271 86.8558 71.4652 86.6172C71.8066 86.3752 72.196 86.2543 72.6335 86.2543C72.733 86.2543 72.844 86.2592 72.9666 86.2692C73.0926 86.2758 73.197 86.2874 73.2798 86.304V87.9595C73.2036 87.933 73.0826 87.9098 72.9169 87.8899C72.7545 87.8667 72.5971 87.8551 72.4446 87.8551C72.1165 87.8551 71.8215 87.9264 71.5597 88.0689C71.3011 88.2081 71.0973 88.402 70.9482 88.6506C70.799 88.8991 70.7244 89.1858 70.7244 89.5107V94H68.9247ZM77.492 94.1491C76.7463 94.1491 76.1 93.9851 75.5531 93.657C75.0062 93.3288 74.582 92.8698 74.2804 92.2798C73.9821 91.6899 73.8329 91.0005 73.8329 90.2116C73.8329 89.4228 73.9821 88.7318 74.2804 88.1385C74.582 87.5452 75.0062 87.0845 75.5531 86.7564C76.1 86.4283 76.7463 86.2642 77.492 86.2642C78.2377 86.2642 78.8841 86.4283 79.4309 86.7564C79.9778 87.0845 80.4004 87.5452 80.6987 88.1385C81.0003 88.7318 81.1511 89.4228 81.1511 90.2116C81.1511 91.0005 81.0003 91.6899 80.6987 92.2798C80.4004 92.8698 79.9778 93.3288 79.4309 93.657C78.8841 93.9851 78.2377 94.1491 77.492 94.1491ZM77.502 92.7074C77.9063 92.7074 78.2444 92.5964 78.5162 92.3743C78.7879 92.1489 78.9901 91.8473 79.1227 91.4695C79.2586 91.0916 79.3265 90.6707 79.3265 90.2067C79.3265 89.7393 79.2586 89.3168 79.1227 88.9389C78.9901 88.5578 78.7879 88.2545 78.5162 88.0291C78.2444 87.8037 77.9063 87.6911 77.502 87.6911C77.0877 87.6911 76.743 87.8037 76.4679 88.0291C76.1961 88.2545 75.9922 88.5578 75.8564 88.9389C75.7238 89.3168 75.6575 89.7393 75.6575 90.2067C75.6575 90.6707 75.7238 91.0916 75.8564 91.4695C75.9922 91.8473 76.1961 92.1489 76.4679 92.3743C76.743 92.5964 77.0877 92.7074 77.502 92.7074ZM84.2049 83.8182V84.8324C84.2049 85.1241 84.1486 85.4273 84.0359 85.7422C83.9265 86.0537 83.7757 86.352 83.5835 86.6371C83.3912 86.9188 83.1725 87.1607 82.9272 87.3629L82.092 86.821C82.2743 86.5459 82.4334 86.2493 82.5692 85.9311C82.7051 85.6096 82.7731 85.2467 82.7731 84.8423V83.8182H84.2049ZM87.0785 96.8636C86.8332 96.8636 86.6062 96.8438 86.3974 96.804C86.1919 96.7675 86.0278 96.7244 85.9052 96.6747L86.3228 95.2727C86.5846 95.349 86.8183 95.3854 87.0238 95.3821C87.2293 95.3788 87.4099 95.3142 87.5657 95.1882C87.7248 95.0656 87.859 94.8601 87.9684 94.5717L88.1225 94.1591L85.3533 86.3636H87.2624L89.0224 92.1307H89.1019L90.8668 86.3636H92.7809L89.7234 94.9247C89.5808 95.3291 89.3919 95.6754 89.1566 95.9638C88.9213 96.2554 88.6329 96.4775 88.2915 96.63C87.9535 96.7857 87.5491 96.8636 87.0785 96.8636ZM95.4979 86.3636L97.0391 89.1825L98.6051 86.3636H100.509L98.2074 90.1818L100.549 94H98.6548L97.0391 91.2507L95.4382 94H93.5291L95.8558 90.1818L93.5888 86.3636H95.4979ZM104.071 94.1541C103.587 94.1541 103.152 94.0679 102.764 93.8956C102.379 93.7199 102.074 93.4614 101.849 93.12C101.627 92.7786 101.516 92.3577 101.516 91.8572C101.516 91.4264 101.596 91.0701 101.755 90.7884C101.914 90.5066 102.131 90.2812 102.406 90.1122C102.681 89.9432 102.991 89.8156 103.336 89.7294C103.684 89.6399 104.043 89.5753 104.414 89.5355C104.862 89.4891 105.225 89.4477 105.503 89.4112C105.782 89.3714 105.984 89.3118 106.11 89.2322C106.239 89.1494 106.304 89.0218 106.304 88.8494V88.8196C106.304 88.4451 106.193 88.1551 105.971 87.9496C105.748 87.7441 105.429 87.6413 105.011 87.6413C104.57 87.6413 104.221 87.7375 103.962 87.9297C103.707 88.1219 103.534 88.349 103.445 88.6108L101.765 88.3722C101.897 87.9081 102.116 87.5204 102.421 87.2088C102.726 86.8939 103.099 86.6586 103.539 86.5028C103.98 86.3438 104.467 86.2642 105.001 86.2642C105.369 86.2642 105.735 86.3073 106.1 86.3935C106.464 86.4796 106.797 86.6222 107.099 86.821C107.401 87.0166 107.643 87.2834 107.825 87.6214C108.011 87.9595 108.103 88.3821 108.103 88.8892V94H106.373V92.951H106.314C106.204 93.1631 106.05 93.362 105.851 93.5476C105.656 93.7299 105.409 93.8774 105.11 93.9901C104.815 94.0994 104.469 94.1541 104.071 94.1541ZM104.539 92.8317C104.9 92.8317 105.213 92.7604 105.478 92.6179C105.743 92.4721 105.947 92.2798 106.09 92.0412C106.236 91.8026 106.309 91.5424 106.309 91.2607V90.3608C106.252 90.4072 106.156 90.4503 106.02 90.4901C105.888 90.5298 105.739 90.5646 105.573 90.5945C105.407 90.6243 105.243 90.6508 105.081 90.674C104.918 90.6972 104.777 90.7171 104.658 90.7337C104.39 90.7701 104.149 90.8298 103.937 90.9126C103.725 90.9955 103.558 91.1115 103.435 91.2607C103.312 91.4065 103.251 91.5954 103.251 91.8274C103.251 92.1589 103.372 92.4091 103.614 92.5781C103.856 92.7472 104.164 92.8317 104.539 92.8317ZM113.726 86.3636V87.7557H109.336V86.3636H113.726ZM110.42 84.5341H112.22V91.7031C112.22 91.9451 112.256 92.1307 112.329 92.2599C112.405 92.3859 112.505 92.4721 112.627 92.5185C112.75 92.5649 112.886 92.5881 113.035 92.5881C113.148 92.5881 113.251 92.5798 113.343 92.5632C113.44 92.5466 113.512 92.5317 113.562 92.5185L113.865 93.9254C113.769 93.9586 113.632 93.995 113.453 94.0348C113.277 94.0746 113.062 94.0978 112.806 94.1044C112.356 94.1177 111.95 94.0497 111.588 93.9006C111.227 93.7481 110.94 93.5128 110.728 93.1946C110.52 92.8764 110.417 92.4787 110.42 92.0014V84.5341ZM115.231 94V86.3636H117.031V94H115.231ZM116.136 85.2798C115.851 85.2798 115.606 85.1854 115.4 84.9964C115.195 84.8042 115.092 84.5739 115.092 84.3054C115.092 84.0336 115.195 83.8033 115.4 83.6143C115.606 83.4221 115.851 83.326 116.136 83.326C116.425 83.326 116.67 83.4221 116.872 83.6143C117.077 83.8033 117.18 84.0336 117.18 84.3054C117.18 84.5739 117.077 84.8042 116.872 84.9964C116.67 85.1854 116.425 85.2798 116.136 85.2798Z" fill="#444444" fill-opacity="0.266667"/>
</svg>
