<svg width="84" height="91" viewBox="0 0 84 91" fill="none" xmlns="http://www.w3.org/2000/svg">
<path d="M45.9999 0L47.4798 1.47987C54.4285 8.42858 54.4285 19.6947 47.4798 26.6434L16.9738 57.1493C13.0909 61.0323 6.79527 61.0323 2.91226 57.1493C-0.970754 53.2663 -0.970754 46.9707 2.91226 43.0877L45.9999 0Z" fill="#33D7A2"/>
<path d="M89.0878 43.0877C92.9707 46.9707 92.9707 53.2663 89.0878 57.1493C85.2047 61.0323 78.9092 61.0323 75.0261 57.1493L44.5202 26.6433C37.5715 19.6947 37.5715 8.42857 44.5202 1.47987L46 0L89.0878 43.0877Z" fill="#33D7A2"/>
<path d="M45.9999 45.0763L47.4798 46.5562C54.4285 53.5049 54.4285 64.771 47.4798 71.7197L16.9738 102.226C13.0909 106.109 6.79527 106.109 2.91226 102.226C-0.970754 98.3426 -0.970754 92.047 2.91226 88.1641L45.9999 45.0763Z" fill="#33D7A2"/>
<path d="M89.0878 88.1641C92.9707 92.047 92.9707 98.3426 89.0878 102.226C85.2047 106.109 78.9092 106.109 75.0261 102.226L44.5202 71.7196C37.5715 64.771 37.5715 53.5049 44.5202 46.5561L46 45.0763L89.0878 88.1641Z" fill="#33D7A2"/>
</svg>
