<svg width="18" height="14" viewBox="0 0 18 14" fill="none" xmlns="http://www.w3.org/2000/svg">
<path d="M17.8207 3.4001C17.8207 3.4001 17.6449 2.15908 17.1035 1.61416C16.418 0.896973 15.6516 0.893457 15.3 0.851269C12.7828 0.668457 9.00352 0.668457 9.00352 0.668457H8.99648C8.99648 0.668457 5.21719 0.668457 2.7 0.851269C2.34844 0.893457 1.58203 0.896973 0.896484 1.61416C0.355078 2.15908 0.182812 3.4001 0.182812 3.4001C0.182812 3.4001 0 4.85908 0 6.31455V7.67861C0 9.13408 0.179297 10.5931 0.179297 10.5931C0.179297 10.5931 0.355078 11.8341 0.892969 12.379C1.57852 13.0962 2.47852 13.0716 2.8793 13.1489C4.3207 13.286 9 13.3282 9 13.3282C9 13.3282 12.7828 13.3212 15.3 13.1419C15.6516 13.0997 16.418 13.0962 17.1035 12.379C17.6449 11.8341 17.8207 10.5931 17.8207 10.5931C17.8207 10.5931 18 9.1376 18 7.67861V6.31455C18 4.85908 17.8207 3.4001 17.8207 3.4001ZM7.14023 9.33447V4.27549L12.0023 6.81377L7.14023 9.33447Z" fill="white"/>
</svg>
